<svg width="24" height="25" viewBox="0 0 24 25" fill="none" xmlns="http://www.w3.org/2000/svg">
  <g clip-path="url(#clip0_223:106)">
  <path opacity="0.5" d="M4.749 24.2404C5.80421 24.2404 6.65962 23.3638 6.65962 22.2826C6.65962 21.2013 5.80421 20.3248 4.749 20.3248C3.69379 20.3248 2.83838 21.2013 2.83838 22.2826C2.83838 23.3638 3.69379 24.2404 4.749 24.2404Z" fill="#62E9FF"/>
  <path opacity="0.5" d="M20.0337 24.2404C21.0889 24.2404 21.9443 23.3638 21.9443 22.2826C21.9443 21.2013 21.0889 20.3248 20.0337 20.3248C18.9785 20.3248 18.123 21.2013 18.123 22.2826C18.123 23.3638 18.9785 24.2404 20.0337 24.2404Z" fill="#62E9FF"/>
  <path d="M22.9001 16.4098H3.42897L4.38428 14.452H19.0789C19.2696 14.4519 19.456 14.3934 19.6141 14.2838C19.7721 14.1742 19.8944 14.0187 19.9654 13.8372L23.7866 4.04824C23.8447 3.89972 23.8664 3.73887 23.8498 3.57977C23.8331 3.42068 23.7787 3.26819 23.6912 3.13565C23.6037 3.00312 23.4858 2.89457 23.3479 2.81953C23.21 2.74449 23.0563 2.70523 22.9001 2.70519H4.1894L2.55964 1.03323C2.38025 0.849419 2.13696 0.746155 1.88328 0.746155C1.62959 0.746155 1.3863 0.849419 1.20692 1.03323C1.02753 1.21704 0.926758 1.46634 0.926758 1.72629C0.926758 1.98624 1.02753 2.23554 1.20692 2.41935L2.83859 4.08935V13.2421L1.02923 16.9501C0.956245 17.0994 0.92172 17.2653 0.928934 17.432C0.936147 17.5988 0.98486 17.7609 1.07044 17.9029C1.15602 18.045 1.27563 18.1622 1.4179 18.2436C1.56017 18.3249 1.72037 18.3676 1.88328 18.3676H22.9001C23.1535 18.3676 23.3965 18.2645 23.5756 18.0809C23.7548 17.8973 23.8554 17.6483 23.8554 17.3887C23.8554 17.1291 23.7548 16.8801 23.5756 16.6965C23.3965 16.5129 23.1535 16.4098 22.9001 16.4098Z" fill="#62E9FF"/>
  </g>
  <defs>
  <clipPath id="clip0_223:106">
  <rect width="22.9275" height="23.4936" fill="white" transform="translate(0.927246 0.746796)"/>
  </clipPath>
  </defs>
</svg>
