<svg width="160" height="161" viewBox="0 0 160 161" fill="none" xmlns="http://www.w3.org/2000/svg">
  <g clip-path="url(#clip0_201:220)">
  <mask id="mask0_201:220" style="mask-type:alpha" maskUnits="userSpaceOnUse" x="10" y="12" width="140" height="139">
  <path d="M79.6001 150.504C117.97 150.504 149.076 119.573 149.076 81.4165C149.076 43.2602 117.97 12.3285 79.6001 12.3285C41.2298 12.3285 10.1245 43.2602 10.1245 81.4165C10.1245 119.573 41.2298 150.504 79.6001 150.504Z" fill="white"/>
  </mask>
  <g mask="url(#mask0_201:220)">
  <g opacity="0.9">
  <path opacity="0.5" d="M-7.08291 79.0484C6.65731 54.1887 19.6641 46.9787 29.1468 45.0957C45.3474 41.8766 50.9327 54.2651 74.4119 53.381C92.7457 52.6855 108.965 44.3905 113.521 41.9306C128.649 33.7656 134.532 25.5475 146.465 26.127C155.64 26.572 162.983 31.9576 167.538 36.1228C163.914 45.3736 157.512 58.9055 146.649 71.3636C125.838 95.2345 102.195 99.6283 86.9291 102.197C44.1838 109.393 9.05499 89.8145 -7.08291 79.0484Z" fill="#F369FF"/>
  <path d="M-0.232863 42.607C10.2346 32.1883 18.1679 33.3656 33.6276 37.6509C49.1726 41.9649 51.585 53.1752 72.3207 64.1583C80.7189 68.6089 97.8372 77.3762 118.649 73.5781C136.422 70.3349 149.435 59.287 157.037 51.2227C159.017 61.2857 162.016 82.8901 154.265 104.328C140.884 141.341 95.0123 166.5 75.9813 161.87C-10.9932 155.406 -4.01218 58.7369 -0.232863 42.607Z" fill="#F369FF"/>
  </g>
  </g>
  <path fill-rule="evenodd" clip-rule="evenodd" d="M79.2122 153.792C119.847 153.792 152.788 120.851 152.788 80.2163C152.788 39.5814 119.847 6.64034 79.2122 6.64034C38.5773 6.64034 5.63623 39.5814 5.63623 80.2163C5.63623 120.851 38.5773 153.792 79.2122 153.792ZM154.788 80.2163C154.788 121.956 120.952 155.792 79.2122 155.792C37.4728 155.792 3.63623 121.956 3.63623 80.2163C3.63623 38.4769 37.4728 4.64034 79.2122 4.64034C120.952 4.64034 154.788 38.4769 154.788 80.2163Z" fill="#F369FF"/>
  <g style="mix-blend-mode:screen" opacity="0.8">
  <path fill-rule="evenodd" clip-rule="evenodd" d="M154.16 98.7243C154.68 98.4963 155.228 98.3603 155.792 98.2923C158.42 97.9723 160.428 96.4443 160.4 94.6523L160.192 81.8283C160.172 80.6363 159.252 79.5883 157.86 78.9523C156.44 78.3043 154.804 78.3603 153.356 78.9483C149.536 80.5043 134.56 84.4443 79.7605 85.5203C32.2045 86.4523 10.4685 82.0283 5.98845 80.9683C5.16045 80.7723 4.30445 80.7483 3.47245 80.9283C1.21245 81.4203 -0.427549 82.8283 -0.399549 84.4443L-0.191547 97.2683C-0.159548 99.1243 2.04845 100.628 4.82845 100.776C5.24445 100.8 5.65645 100.872 6.06045 100.988C9.48045 101.972 27.5044 106.244 81.5044 105.772C135.472 105.3 150.892 100.16 154.16 98.7243ZM2.20793 97.2165C2.21814 97.2562 2.28638 97.4346 2.65553 97.6906C3.1376 98.0249 3.93813 98.3255 4.95604 98.3797L4.96136 98.38L4.96669 98.3803C5.56788 98.415 6.15554 98.5187 6.7228 98.6815L6.72406 98.6819C9.81638 99.5716 27.5715 103.844 81.4835 103.372C135.411 102.901 150.406 97.7527 153.195 96.5271L153.197 96.5263C153.964 96.1898 154.745 96.0015 155.502 95.9099C155.503 95.9098 155.504 95.9097 155.505 95.9096C156.46 95.7928 157.188 95.4668 157.615 95.133C157.934 94.884 157.992 94.7199 158.001 94.6807L157.793 81.8734C157.788 81.8542 157.766 81.8015 157.693 81.7133C157.562 81.5556 157.301 81.3356 156.864 81.1357C156.135 80.8033 155.195 80.7922 154.259 81.172C152.048 82.0723 147.095 83.4759 135.959 84.7976C124.782 86.1241 107.253 87.381 79.8076 87.9199L79.8075 87.9199C32.0926 88.855 10.15 84.4192 5.43585 83.3038L5.43561 83.3038C4.92617 83.1832 4.43406 83.1761 3.98141 83.2738C3.17677 83.4492 2.60147 83.7651 2.27735 84.0547C2.05682 84.2517 2.00894 84.376 2.00023 84.4115L2.20793 97.2165ZM2.20638 97.2082C2.20651 97.2081 2.20701 97.2102 2.20743 97.2145C2.20645 97.2104 2.20624 97.2082 2.20638 97.2082ZM1.99862 84.422C1.99834 84.422 1.99851 84.4188 1.99994 84.4127C1.99961 84.419 1.9989 84.422 1.99862 84.422ZM157.794 81.8816C157.794 81.8816 157.793 81.8791 157.793 81.874C157.794 81.8791 157.795 81.8816 157.794 81.8816ZM158.002 94.6717C158.002 94.6717 158.002 94.6743 158.001 94.6792C158.001 94.6742 158.002 94.6717 158.002 94.6717Z" fill="#F369FF"/>
  </g>
  </g>
  <defs>
  <clipPath id="clip0_201:220">
  <rect width="160" height="160" fill="white" transform="translate(0 0.240341)"/>
  </clipPath>
  </defs>
</svg>
