<svg width="160" height="161" viewBox="0 0 160 161" fill="none" xmlns="http://www.w3.org/2000/svg">
  <g clip-path="url(#clip0_113:6961)">
  <mask id="mask0_113:6961" style="mask-type:alpha" maskUnits="userSpaceOnUse" x="10" y="11" width="139" height="139">
  <path d="M79.213 149.304C117.369 149.304 148.301 118.373 148.301 80.2164C148.301 42.0602 117.369 11.1284 79.213 11.1284C41.0568 11.1284 10.125 42.0602 10.125 80.2164C10.125 118.373 41.0568 149.304 79.213 149.304Z" fill="white"/>
  </mask>
  <g mask="url(#mask0_113:6961)">
  <g opacity="0.8">
  <path opacity="0.5" d="M-6.98674 77.8485C6.67683 52.9888 19.6111 45.7788 29.0409 43.8958C45.151 40.6767 50.7052 53.0653 74.0534 52.1811C92.285 51.4856 108.413 43.1906 112.945 40.7307C127.988 32.5657 133.839 24.3476 145.704 24.9271C154.829 25.3721 162.13 30.7577 166.66 34.9229C163.056 44.1737 156.69 57.7056 145.888 70.1637C125.193 94.0346 101.681 98.4284 86.5007 100.997C43.9939 108.193 9.06113 88.6146 -6.98674 77.8485Z" fill="#03E9FF"/>
  <path d="M-0.17459 41.4071C10.2344 30.9884 18.1235 32.1658 33.4969 36.451C48.9552 40.765 51.3542 51.9753 71.9742 62.9585C80.3255 67.4091 97.3484 76.1763 118.044 72.3783C135.718 69.1351 148.658 58.0872 156.217 50.0228C158.187 60.0858 161.169 81.6903 153.462 103.129C140.155 140.141 94.5392 165.3 75.6144 160.67C-10.8749 154.206 -3.93282 57.537 -0.17459 41.4071Z" fill="#03E9FF"/>
  </g>
  </g>
  <mask id="path-4-inside-1_113:6961" fill="white">
  <path fill-rule="evenodd" clip-rule="evenodd" d="M150.066 100.092C141.395 131.068 112.957 153.786 79.2125 153.786C46.0403 153.786 17.9959 131.832 8.81683 101.66C15.9952 103.192 35.9464 106.171 81.5045 105.772C123.798 105.402 142.417 102.166 150.066 100.092ZM152.775 79.1707C148.119 80.8507 132.112 84.4924 79.7605 85.5204C32.2045 86.4524 10.4685 82.0284 5.98845 80.9684C5.8747 80.9414 5.76042 80.9178 5.64574 80.8974C5.64368 80.6706 5.64265 80.4436 5.64265 80.2164C5.64265 39.5849 38.581 6.64653 79.2125 6.64653C119.495 6.64653 152.216 39.0213 152.775 79.1707ZM154.771 78.5561C153.888 37.5833 120.397 4.64038 79.2125 4.64038C37.473 4.64038 3.6365 38.4769 3.6365 80.2164C3.6365 80.4428 3.6375 80.669 3.63948 80.895C3.58371 80.9052 3.52803 80.9164 3.47245 80.9284C1.21245 81.4204 -0.427549 82.8284 -0.399549 84.4444L-0.191547 97.2684C-0.159547 99.1244 2.04845 100.628 4.82845 100.776C5.24445 100.8 5.65646 100.872 6.06045 100.988C6.20329 101.029 6.37161 101.076 6.56695 101.128C15.6376 132.696 44.7278 155.792 79.2125 155.792C114.318 155.792 143.833 131.857 152.328 99.4153C153.161 99.1385 153.754 98.9028 154.16 98.7244C154.68 98.4964 155.228 98.3604 155.792 98.2924C158.42 97.9724 160.428 96.4444 160.4 94.6524L160.192 81.8284C160.172 80.6364 159.252 79.5884 157.86 78.9524C156.889 78.5089 155.815 78.3951 154.771 78.5561Z"/>
  </mask>
  <path d="M150.066 100.092L151.225 100.416L151.797 98.3752L149.751 98.9298L150.066 100.092ZM8.81683 101.66L9.06805 100.483L7.07087 100.057L7.66525 102.011L8.81683 101.66ZM81.5045 105.772L81.515 106.976H81.515L81.5045 105.772ZM79.7605 85.5204L79.784 86.7238H79.7841L79.7605 85.5204ZM152.775 79.1707L153.184 80.303L153.991 80.0118L153.979 79.154L152.775 79.1707ZM5.98845 80.9684L5.71121 82.1397L5.7113 82.1397L5.98845 80.9684ZM5.64574 80.8974L4.4421 80.9083L4.45116 81.9079L5.43545 82.0826L5.64574 80.8974ZM154.771 78.5561L153.567 78.582L153.597 79.9548L154.954 79.7457L154.771 78.5561ZM3.63948 80.895L3.85635 82.079L4.85203 81.8966L4.84313 80.8844L3.63948 80.895ZM3.47245 80.9284L3.21792 79.7519L3.21641 79.7522L3.47245 80.9284ZM-0.399549 84.4444L0.803985 84.4248L0.803962 84.4235L-0.399549 84.4444ZM-0.191547 97.2684L-1.39508 97.2879L-1.39506 97.2891L-0.191547 97.2684ZM4.82845 100.776L4.89779 99.5747L4.89245 99.5744L4.82845 100.776ZM6.06045 100.988L6.3933 99.8316L6.39264 99.8314L6.06045 100.988ZM6.56695 101.128L7.72383 100.796L7.53551 100.14L6.87651 99.9651L6.56695 101.128ZM152.328 99.4153L151.948 98.2731L151.329 98.4791L151.164 99.1104L152.328 99.4153ZM154.16 98.7244L153.677 97.622L153.676 97.6224L154.16 98.7244ZM155.792 98.2924L155.937 99.4874L155.938 99.4872L155.792 98.2924ZM160.4 94.6524L161.604 94.6336L161.604 94.6329L160.4 94.6524ZM160.192 81.8284L161.396 81.8089L161.396 81.8082L160.192 81.8284ZM157.86 78.9524L158.361 77.8576L158.36 77.8573L157.86 78.9524ZM79.2125 154.99C113.511 154.99 142.413 131.898 151.225 100.416L148.907 99.7671C140.378 130.237 112.403 152.583 79.2125 152.583V154.99ZM7.66525 102.011C16.9942 132.675 45.4958 154.99 79.2125 154.99V152.583C46.5848 152.583 18.9975 130.989 9.96841 101.31L7.66525 102.011ZM81.4939 104.569C35.9801 104.967 16.1262 101.989 9.06805 100.483L8.56561 102.837C15.8642 104.395 35.9126 107.375 81.515 106.976L81.4939 104.569ZM149.751 98.9298C142.248 100.964 123.748 104.199 81.4939 104.569L81.515 106.976C123.847 106.606 142.586 103.367 150.381 101.253L149.751 98.9298ZM79.7841 86.7238C132.126 85.6961 148.318 82.0583 153.184 80.303L152.367 78.0385C147.919 79.6431 132.098 83.2888 79.7368 84.3169L79.7841 86.7238ZM5.7113 82.1397C10.3087 83.2275 32.1484 87.6574 79.784 86.7238L79.7369 84.3169C32.2606 85.2473 10.6282 80.8292 6.2656 79.797L5.7113 82.1397ZM5.43545 82.0826C5.52734 82.0989 5.6193 82.1179 5.71121 82.1397L6.26569 79.797C6.1301 79.7649 5.99349 79.7366 5.85603 79.7122L5.43545 82.0826ZM4.43896 80.2164C4.43896 80.4473 4.44001 80.6779 4.4421 80.9083L6.84938 80.8865C6.84736 80.6634 6.84634 80.44 6.84634 80.2164H4.43896ZM79.2125 5.44284C37.9162 5.44284 4.43896 38.9201 4.43896 80.2164H6.84634C6.84634 40.2497 39.2458 7.85022 79.2125 7.85022V5.44284ZM153.979 79.154C153.41 38.3472 120.154 5.44284 79.2125 5.44284V7.85022C118.836 7.85022 151.021 39.6953 151.572 79.1875L153.979 79.154ZM79.2125 5.84407C119.741 5.84407 152.698 38.2623 153.567 78.582L155.974 78.5301C155.077 36.9043 121.053 3.43669 79.2125 3.43669V5.84407ZM4.84019 80.2164C4.84019 39.1417 38.1378 5.84407 79.2125 5.84407V3.43669C36.8083 3.43669 2.43281 37.8121 2.43281 80.2164H4.84019ZM4.84313 80.8844C4.84117 80.662 4.84019 80.4393 4.84019 80.2164H2.43281C2.43281 80.4464 2.43382 80.6761 2.43584 80.9056L4.84313 80.8844ZM3.72699 82.1049C3.76991 82.0956 3.81303 82.087 3.85635 82.079L3.42262 79.711C3.35439 79.7235 3.28615 79.7371 3.21792 79.7519L3.72699 82.1049ZM0.803962 84.4235C0.797608 84.0568 0.975597 83.6135 1.48036 83.1625C1.98647 82.7104 2.76127 82.3151 3.7285 82.1045L3.21641 79.7522C1.92364 80.0337 0.74844 80.5883 -0.123456 81.3672C-0.996694 82.1473 -1.62471 83.2159 -1.60306 84.4652L0.803962 84.4235ZM1.01199 97.2488L0.803984 84.4248L-1.60308 84.4639L-1.39508 97.2879L1.01199 97.2488ZM4.89245 99.5744C3.68906 99.5103 2.66598 99.1537 1.97385 98.6737C1.27504 98.1892 1.01922 97.6682 1.01197 97.2476L-1.39506 97.2891C-1.37031 98.7245 -0.506136 99.8836 0.602059 100.652C1.71692 101.425 3.18785 101.894 4.76446 101.978L4.89245 99.5744ZM6.39264 99.8314C5.90675 99.6919 5.40666 99.604 4.89779 99.5747L4.75912 101.978C5.08225 101.997 5.40616 102.053 5.72827 102.145L6.39264 99.8314ZM6.87651 99.9651C6.68871 99.9151 6.52816 99.8704 6.3933 99.8316L5.72761 102.145C5.87842 102.189 6.0545 102.237 6.25739 102.291L6.87651 99.9651ZM79.2125 154.589C45.2788 154.589 16.6502 131.861 7.72383 100.796L5.41007 101.461C14.6249 133.53 44.1768 156.996 79.2125 156.996V154.589ZM151.164 99.1104C142.804 131.036 113.757 154.589 79.2125 154.589V156.996C114.879 156.996 144.862 132.678 153.493 99.7202L151.164 99.1104ZM153.676 97.6224C153.308 97.7841 152.749 98.0067 151.948 98.2731L152.708 100.557C153.572 100.27 154.201 100.022 154.645 99.8264L153.676 97.6224ZM155.648 97.0973C154.987 97.1771 154.322 97.3393 153.677 97.622L154.644 99.8268C155.039 99.6534 155.47 99.5437 155.937 99.4874L155.648 97.0973ZM159.197 94.6712C159.203 95.0784 158.982 95.5833 158.351 96.0758C157.725 96.5654 156.782 96.9593 155.647 97.0975L155.938 99.4872C157.431 99.3054 158.806 98.7754 159.833 97.973C160.857 97.1734 161.626 96.0183 161.604 94.6336L159.197 94.6712ZM158.989 81.8479L159.197 94.6719L161.604 94.6329L161.396 81.8089L158.989 81.8479ZM157.36 80.0472C158.541 80.5869 158.98 81.3144 158.989 81.8486L161.396 81.8082C161.365 79.9584 159.963 78.5899 158.361 77.8576L157.36 80.0472ZM154.954 79.7457C155.793 79.6164 156.626 79.712 157.361 80.0474L158.36 77.8573C157.151 77.3057 155.837 77.1738 154.587 77.3664L154.954 79.7457Z" fill="#03E9FF" mask="url(#path-4-inside-1_113:6961)"/>
  <mask id="path-6-inside-2_113:6961" fill="white">
  <path fill-rule="evenodd" clip-rule="evenodd" d="M79.2327 148.338C116.895 148.338 147.427 117.807 147.427 80.1444C147.427 42.482 116.895 11.9505 79.2327 11.9505C41.5703 11.9505 11.0389 42.482 11.0389 80.1444C11.0389 117.807 41.5703 148.338 79.2327 148.338ZM149.433 80.1444C149.433 118.915 118.003 150.344 79.2327 150.344C40.4623 150.344 9.03271 118.915 9.03271 80.1444C9.03271 41.374 40.4623 9.9444 79.2327 9.9444C118.003 9.9444 149.433 41.374 149.433 80.1444Z"/>
  </mask>
  <path d="M146.223 80.1444C146.223 117.142 116.23 147.135 79.2327 147.135V149.542C117.56 149.542 148.63 118.472 148.63 80.1444H146.223ZM79.2327 13.1542C116.23 13.1542 146.223 43.1468 146.223 80.1444H148.63C148.63 41.8172 117.56 10.7469 79.2327 10.7469V13.1542ZM12.2426 80.1444C12.2426 43.1468 42.2351 13.1542 79.2327 13.1542V10.7469C40.9055 10.7469 9.83518 41.8172 9.83518 80.1444H12.2426ZM79.2327 147.135C42.2351 147.135 12.2426 117.142 12.2426 80.1444H9.83518C9.83518 118.472 40.9055 149.542 79.2327 149.542V147.135ZM79.2327 151.548C118.668 151.548 150.636 119.58 150.636 80.1444H148.229C148.229 118.25 117.338 149.141 79.2327 149.141V151.548ZM7.82902 80.1444C7.82902 119.58 39.7976 151.548 79.2327 151.548V149.141C41.1271 149.141 10.2364 118.25 10.2364 80.1444H7.82902ZM79.2327 8.74071C39.7976 8.74071 7.82902 40.7092 7.82902 80.1444H10.2364C10.2364 42.0388 41.1271 11.1481 79.2327 11.1481V8.74071ZM150.636 80.1444C150.636 40.7092 118.668 8.74071 79.2327 8.74071V11.1481C117.338 11.1481 148.229 42.0388 148.229 80.1444H150.636Z" fill="#03E9FF" mask="url(#path-6-inside-2_113:6961)"/>
  </g>
  <defs>
  <clipPath id="clip0_113:6961">
  <rect width="160" height="160" fill="white" transform="translate(0 0.240356)"/>
  </clipPath>
  </defs>
</svg>
