<svg width="160" height="161" viewBox="0 0 160 161" fill="none" xmlns="http://www.w3.org/2000/svg">
  <g clip-path="url(#clip0_201:334)">
  <mask id="mask0_201:334" style="mask-type:alpha" maskUnits="userSpaceOnUse" x="10" y="12" width="140" height="139">
  <path d="M79.6001 150.505C117.97 150.505 149.076 119.573 149.076 81.4165C149.076 43.2603 117.97 12.3286 79.6001 12.3286C41.2298 12.3286 10.1245 43.2603 10.1245 81.4165C10.1245 119.573 41.2298 150.505 79.6001 150.505Z" fill="white"/>
  </mask>
  <g mask="url(#mask0_201:334)">
  <g opacity="0.9">
  <path opacity="0.5" d="M-7.08291 79.0484C6.65731 54.1888 19.6641 46.9788 29.1468 45.0958C45.3474 41.8767 50.9327 54.2652 74.4119 53.3811C92.7457 52.6856 108.965 44.3906 113.521 41.9307C128.649 33.7656 134.532 25.5476 146.465 26.127C155.64 26.5721 162.983 31.9577 167.538 36.1229C163.914 45.3736 157.512 58.9055 146.649 71.3637C125.838 95.2345 102.195 99.6283 86.9291 102.197C44.1838 109.393 9.05499 89.8146 -7.08291 79.0484Z" fill="#FFB801"/>
  <path d="M-0.232863 42.6071C10.2346 32.1884 18.1679 33.3657 33.6276 37.651C49.1726 41.9649 51.585 53.1753 72.3207 64.1584C80.7189 68.609 97.8372 77.3763 118.649 73.5782C136.422 70.335 149.435 59.2871 157.037 51.2228C159.017 61.2858 162.016 82.8902 154.265 104.329C140.884 141.341 95.0123 166.5 75.9813 161.87C-10.9932 155.406 -4.01218 58.737 -0.232863 42.6071Z" fill="#FFB801"/>
  </g>
  </g>
  <path fill-rule="evenodd" clip-rule="evenodd" d="M79.2122 153.792C119.847 153.792 152.788 120.851 152.788 80.2164C152.788 39.5815 119.847 6.64038 79.2122 6.64038C38.5773 6.64038 5.63623 39.5815 5.63623 80.2164C5.63623 120.851 38.5773 153.792 79.2122 153.792ZM154.788 80.2164C154.788 121.956 120.952 155.792 79.2122 155.792C37.4728 155.792 3.63623 121.956 3.63623 80.2164C3.63623 38.4769 37.4728 4.64038 79.2122 4.64038C120.952 4.64038 154.788 38.4769 154.788 80.2164Z" fill="#FFB801"/>
  <g style="mix-blend-mode:screen" opacity="0.8">
  <path fill-rule="evenodd" clip-rule="evenodd" d="M154.16 98.7244C154.68 98.4964 155.228 98.3604 155.792 98.2924C158.42 97.9724 160.428 96.4444 160.4 94.6524L160.192 81.8284C160.172 80.6364 159.252 79.5884 157.86 78.9524C156.44 78.3044 154.804 78.3604 153.356 78.9484C149.536 80.5044 134.56 84.4444 79.7605 85.5204C32.2045 86.4524 10.4685 82.0284 5.98845 80.9684C5.16045 80.7724 4.30445 80.7484 3.47245 80.9284C1.21245 81.4204 -0.427549 82.8284 -0.399549 84.4444L-0.191547 97.2684C-0.159548 99.1244 2.04845 100.628 4.82845 100.776C5.24445 100.8 5.65645 100.872 6.06045 100.988C9.48045 101.972 27.5044 106.244 81.5044 105.772C135.472 105.3 150.892 100.16 154.16 98.7244ZM2.20793 97.2166C2.21814 97.2562 2.28638 97.4347 2.65553 97.6907C3.1376 98.0249 3.93813 98.3256 4.95604 98.3798L4.96136 98.3801L4.96669 98.3804C5.56788 98.4151 6.15554 98.5187 6.7228 98.6816L6.72406 98.682C9.81638 99.5717 27.5715 103.844 81.4835 103.372C135.411 102.901 150.406 97.7527 153.195 96.5272L153.197 96.5264C153.964 96.1898 154.745 96.0015 155.502 95.91C155.503 95.9099 155.504 95.9098 155.505 95.9096C156.46 95.7929 157.188 95.4669 157.615 95.133C157.934 94.8841 157.992 94.7199 158.001 94.6808L157.793 81.8735C157.788 81.8543 157.766 81.8015 157.693 81.7133C157.562 81.5557 157.301 81.3357 156.864 81.1358C156.135 80.8033 155.195 80.7922 154.259 81.1721C152.048 82.0724 147.095 83.476 135.959 84.7977C124.782 86.1242 107.253 87.381 79.8076 87.9199L79.8075 87.9199C32.0926 88.855 10.15 84.4193 5.43585 83.3039L5.43561 83.3039C4.92617 83.1833 4.43406 83.1761 3.98141 83.2738C3.17677 83.4492 2.60147 83.7652 2.27735 84.0547C2.05682 84.2517 2.00894 84.376 2.00023 84.4115L2.20793 97.2166ZM2.20638 97.2082C2.20651 97.2082 2.20701 97.2103 2.20743 97.2146C2.20645 97.2104 2.20624 97.2083 2.20638 97.2082ZM1.99862 84.4221C1.99834 84.422 1.99851 84.4189 1.99994 84.4127C1.99961 84.419 1.9989 84.4221 1.99862 84.4221ZM157.794 81.8817C157.794 81.8817 157.793 81.8791 157.793 81.8741C157.794 81.8792 157.795 81.8817 157.794 81.8817ZM158.002 94.6718C158.002 94.6718 158.002 94.6743 158.001 94.6793C158.001 94.6742 158.002 94.6717 158.002 94.6718Z" fill="#FFB801"/>
  </g>
  </g>
  <defs>
  <clipPath id="clip0_201:334">
  <rect width="160" height="160" fill="white" transform="translate(0 0.240356)"/>
  </clipPath>
  </defs>
</svg>
