<svg width="160" height="160" viewBox="0 0 160 160" fill="none" xmlns="http://www.w3.org/2000/svg">
<g clip-path="url(#clip0_397:2817)">
<path fill-rule="evenodd" clip-rule="evenodd" d="M135.2 79.7999C135.2 110.396 110.486 135.2 79.9998 135.2C49.5137 135.2 24.7998 110.396 24.7998 79.7999C24.7998 49.2033 49.5137 24.3999 79.9998 24.3999C110.486 24.3999 135.2 49.2033 135.2 79.7999ZM133.886 79.7999C133.886 109.668 109.76 133.881 79.9998 133.881C50.2396 133.881 26.1141 109.668 26.1141 79.7999C26.1141 49.9318 50.2396 25.719 79.9998 25.719C109.76 25.719 133.886 49.9318 133.886 79.7999Z" fill="#FFB801"/>
<path d="M122.463 114.906C124.36 112.872 129.206 108.688 139.065 109.127C140.058 109.172 153.17 109.855 157.465 114.962C161.189 119.389 157.511 126.228 149.914 126.733C147.188 126.914 144.411 126.25 142.394 125.605C143.283 126.443 145.352 128.534 146.106 130.954C147.074 134.063 145.76 137.377 141.964 136.811C139.095 136.384 136.234 133.95 135.601 133.398C136.375 134.904 137.693 137.93 137.026 140.709C136.09 144.603 131.463 147.145 128.081 145.409C123.845 143.237 122.415 134.799 121.701 130.597C120.471 123.335 121.474 118.1 122.463 114.906Z" fill="#FFB801"/>
<path d="M36.9642 45.0025C38.6133 42.7622 41.8293 37.2264 39.576 27.6187C39.3486 26.6512 36.2544 13.8905 30.4425 10.6137C25.4032 7.77192 19.3613 12.6504 20.2688 20.2099C20.5948 22.9223 21.7607 25.5289 22.7666 27.3913C21.7794 26.6731 19.3421 25.026 16.8248 24.7319C13.5899 24.3555 10.5758 26.2593 11.8336 29.8851C12.7837 32.6257 15.704 34.988 16.364 35.508C14.7402 35.0257 11.5229 34.2892 8.91467 35.4585C5.26106 37.0975 3.61799 42.1142 5.94844 45.1174C8.86626 48.8793 17.4228 48.7259 21.6845 48.6509C29.0486 48.5179 34.008 46.565 36.9642 45.0025Z" fill="#FFB801"/>
<path fill-rule="evenodd" clip-rule="evenodd" d="M126.4 80C126.4 105.405 105.447 126 79.5998 126C53.7529 126 32.7998 105.405 32.7998 80C32.7998 54.5949 53.7529 34 79.5998 34C105.447 34 126.4 54.5949 126.4 80ZM125.286 80C125.286 104.8 104.831 124.905 79.5998 124.905C54.3683 124.905 33.9141 104.8 33.9141 80C33.9141 55.1998 54.3683 35.0952 79.5998 35.0952C104.831 35.0952 125.286 55.1998 125.286 80Z" fill="#FFB801"/>
<mask id="mask0_397:2817" style="mask-type:alpha" maskUnits="userSpaceOnUse" x="34" y="33" width="92" height="93">
<path d="M125.6 79.8001C125.6 105.316 105.095 126 79.8 126C54.5054 126 34 105.316 34 79.8001C34 54.2845 54.5054 33.6001 79.8 33.6001C105.095 33.6001 125.6 54.2845 125.6 79.8001Z" fill="#C4C4C4"/>
</mask>
<g mask="url(#mask0_397:2817)">
<path opacity="0.8" d="M15.5905 83.6359C21.9318 63.6807 30.0211 56.833 36.3487 54.3281C47.1607 50.0463 52.6119 58.5298 68.7633 55.1123C81.3728 52.4444 91.5511 44.4146 94.3917 42.0664C103.826 34.265 106.853 27.5091 115.194 26.5324C121.608 25.7835 127.382 28.8902 131.069 31.4278C129.74 38.6765 127.037 49.4116 121.101 59.8811C109.736 79.9372 93.9208 85.9598 83.6727 89.6503C54.9843 99.9903 28.1469 89.6799 15.5905 83.6359Z" fill="#FFB801"/>
<path fill-rule="evenodd" clip-rule="evenodd" d="M14.5855 84.0695L14.8028 83.3856C21.1884 63.2911 29.4056 56.1879 36.0444 53.5597C41.613 51.3544 45.8619 52.3956 50.4824 53.5277C50.5715 53.5496 50.6608 53.5715 50.7502 53.5933C55.4486 54.7433 60.7019 55.9733 68.5922 54.3037C80.9951 51.6795 91.0434 43.7619 93.8651 41.4294C96.9389 38.8877 99.2804 36.5035 101.391 34.3542C102.514 33.2114 103.571 32.135 104.638 31.1366C107.677 28.2944 110.677 26.2292 115.098 25.7116L115.098 25.7115C121.821 24.9266 127.809 28.1805 131.537 30.7471L131.978 31.0505L131.882 31.5769C130.544 38.873 127.819 49.7079 121.82 60.2889C110.304 80.6113 94.2493 86.7202 83.9527 90.4281C54.9413 100.884 27.8424 90.4507 15.232 84.3807L14.5855 84.0695ZM83.6727 89.6504C93.9208 85.9599 109.736 79.9373 121.101 59.8812C127.037 49.4117 129.74 38.6766 131.069 31.4279C127.382 28.8903 121.608 25.7836 115.194 26.5325C109.594 27.1883 106.389 30.4493 102.032 34.8827C99.9 37.0525 97.4918 39.5031 94.3917 42.0665C91.5511 44.4146 81.3728 52.4445 68.7633 55.1124C60.5624 56.8476 55.1201 55.5147 50.334 54.3424C45.6941 53.2059 41.6708 52.2205 36.3487 54.3282C30.0211 56.8331 21.9318 63.6808 15.5905 83.6359C28.1469 89.68 54.9843 99.9904 83.6727 89.6504Z" fill="#FFB801"/>
<path d="M16.7998 62.4C18.7998 59.8 29.5997 48.3127 38.5041 48.3127C49.8237 49.6649 53.0324 50.2899 68.7999 55.9516C83.9999 61.4096 88.0611 70.0603 101.989 64.8112C113.887 60.3276 119.166 46.4445 123.4 39.6C126.058 46.788 133.219 66.5786 130.591 83.3016C126.051 112.177 97.5124 134.063 83.7167 134.958C29.3577 138.479 16.2467 74.7426 16.7998 62.4Z" fill="#FFB801"/>
<path fill-rule="evenodd" clip-rule="evenodd" d="M14.8639 55.6856L14.9907 55.4946C18.0237 50.925 21.064 48.5175 24.8735 47.487C28.6107 46.476 32.995 46.8237 38.6018 47.492L38.602 47.4921C44.4766 48.1938 48.2251 50.6338 52.4006 53.5168C52.6178 53.6668 52.8363 53.8181 53.0565 53.9705C57.0551 56.7388 61.6071 59.8904 68.9734 62.5354L68.6941 63.3134C61.2243 60.6312 56.5969 57.4272 52.5917 54.654C48.1424 51.5734 44.461 49.0244 38.504 48.3128C27.2455 46.9707 21.5982 47.0341 15.6793 55.9517C15.1262 68.2943 29.3575 138.479 83.7166 134.958L83.77 135.783C56.1407 137.573 38.7455 120.597 28.3821 101.803C23.199 92.4035 19.7505 82.5146 17.6317 74.2028C15.5182 65.9121 14.71 59.1197 14.8536 55.9147L14.8639 55.6856ZM130.591 83.3017C126.051 112.177 97.5122 134.064 83.7166 134.958L83.7701 135.783C87.392 135.548 91.8867 133.95 96.6267 131.291C101.381 128.624 106.441 124.857 111.202 120.215C120.716 110.937 129.102 98.093 131.407 83.4301L131.407 83.4301C134.068 66.4951 129.171 50.7473 126.497 43.5187L125.91 41.9306L125.019 43.3705C120.822 50.1559 113.343 59.6494 101.697 64.0378L101.989 64.8113L101.697 64.0378C88.0743 69.1721 75.3546 64.827 68.9734 62.5354L68.6941 63.3134C75.0829 65.6077 88.0609 70.0604 101.989 64.8113C113.383 60.5176 120.836 51.4604 125.166 44.6898C125.357 44.3903 125.543 44.0953 125.722 43.8054C125.838 44.1182 125.958 44.447 126.081 44.791C128.788 52.3522 133.104 67.3065 130.591 83.3017Z" fill="#FFB801"/>
</g>
</g>
<defs>
<clipPath id="clip0_397:2817">
<rect width="160" height="160" fill="white"/>
</clipPath>
</defs>
</svg>
