<svg width="160" height="160" viewBox="0 0 160 160" fill="none" xmlns="http://www.w3.org/2000/svg">
<path fill-rule="evenodd" clip-rule="evenodd" d="M100.698 44.2116L90.2867 12.2079C87.0489 2.255 72.9511 2.25501 69.7133 12.2079L59.3021 44.2116C57.4404 49.9345 52.1009 53.8091 46.0763 53.8091H12.3849C1.90713 53.8091 -2.44931 67.2007 6.0274 73.3519L33.2843 93.1313C38.1583 96.6682 40.1978 102.937 38.3361 108.66L27.9249 140.664C24.6871 150.617 36.0924 158.893 44.5691 152.742L71.826 132.963C76.7 129.426 83.3 129.426 88.174 132.963L115.431 152.742C123.908 158.893 135.313 150.617 132.075 140.664L121.664 108.66C119.802 102.937 121.842 96.6682 126.716 93.1313L153.973 73.3519C162.449 67.2007 158.093 53.8091 147.615 53.8091H113.924C107.899 53.8091 102.56 49.9345 100.698 44.2116ZM91.7562 11.731C88.0559 0.356251 71.9441 0.356272 68.2438 11.731L57.8326 43.7347C56.1777 48.8217 51.4315 52.2658 46.0763 52.2658H12.3849C0.410297 52.2658 -4.56848 67.5705 5.11918 74.6005L32.3761 94.3798C36.7086 97.5237 38.5214 103.096 36.8666 108.183L26.4554 140.187C22.755 151.562 35.7897 161.021 45.4773 153.991L72.7343 134.211C77.0667 131.067 82.9333 131.067 87.2657 134.211L114.523 153.991C124.21 161.021 137.245 151.562 133.545 140.187L123.133 108.183C121.479 103.096 123.291 97.5237 127.624 94.3798L154.881 74.6004C164.568 67.5704 159.59 52.2658 147.615 52.2658H113.924C108.568 52.2658 103.822 48.8217 102.167 43.7347L91.7562 11.731Z" fill="#6ADBFF"/>
<path fill-rule="evenodd" clip-rule="evenodd" d="M94.7312 55.5009L87.3478 32.8044C85.035 25.6952 74.9652 25.6952 72.6525 32.8044L65.269 55.5009C63.821 59.9519 59.6681 62.9656 54.9823 62.9656H31.089C23.6049 62.9656 20.4931 72.531 26.5479 76.9247L45.878 90.9519C49.6689 93.7028 51.2552 98.5789 49.8072 103.03L42.4237 125.726C40.111 132.836 48.2577 138.747 54.3125 134.354L73.6426 120.327C77.4335 117.576 82.5667 117.576 86.3576 120.327L105.688 134.354C111.743 138.747 119.889 132.836 117.576 125.726L110.193 103.03C108.745 98.5789 110.331 93.7028 114.122 90.9519L133.452 76.9247C139.507 72.531 136.395 62.9656 128.911 62.9656H105.018C100.332 62.9656 96.1792 59.9519 94.7312 55.5009ZM88.8173 32.3275C86.042 23.7964 73.9582 23.7964 71.1829 32.3275L63.7995 55.024C62.5584 58.8392 58.9987 61.4223 54.9823 61.4223H31.089C22.108 61.4223 18.3739 72.9008 25.6397 78.1732L44.9698 92.2004C48.2191 94.5584 49.5788 98.7379 48.3376 102.553L40.9542 125.25C38.1789 133.781 47.9549 140.875 55.2207 135.602L74.5508 121.575C77.8001 119.217 82.2001 119.217 85.4494 121.575L104.78 135.602C112.045 140.875 121.821 133.781 119.046 125.25L111.663 102.553C110.421 98.7379 111.781 94.5584 115.03 92.2004L134.361 78.1732C141.626 72.9007 137.892 61.4223 128.911 61.4223H105.018C101.001 61.4223 97.4419 58.8392 96.2007 55.024L88.8173 32.3275Z" fill="#6ADBFF"/>
<mask id="mask0_397:2847" style="mask-type:alpha" maskUnits="userSpaceOnUse" x="23" y="27" width="114" height="110">
<path d="M71.1827 33.871C73.9579 25.3399 86.0417 25.3399 88.817 33.8709L95.8535 55.501C97.0947 59.3162 100.654 61.8993 104.671 61.8993H127.441C136.422 61.8993 140.156 73.3778 132.891 78.6503L114.469 92.0184C111.22 94.3764 109.86 98.5559 111.101 102.371L118.138 124.001C120.913 132.532 111.137 139.626 103.871 134.354L85.4491 120.986C82.1998 118.628 77.7999 118.628 74.5505 120.986L56.1286 134.354C48.8629 139.626 39.0869 132.532 41.8621 124.001L48.8987 102.371C50.1398 98.5559 48.7802 94.3764 45.5308 92.0185L27.1089 78.6503C19.8432 73.3778 23.5773 61.8993 32.5582 61.8993H55.3289C59.3453 61.8993 62.905 59.3163 64.1461 55.501L71.1827 33.871Z" fill="#C4C4C4"/>
</mask>
<g mask="url(#mask0_397:2847)">
<path opacity="0.8" d="M9.38672 86.5968C21.2615 65.2119 32.1151 59.2366 39.9468 57.8273C53.3293 55.4172 57.6205 66.3864 76.9243 66.1965C91.995 66.0485 105.516 59.2013 109.314 57.1677C121.93 50.4105 126.959 43.3734 136.746 44.1778C144.272 44.7988 150.174 49.6865 153.814 53.4415C150.618 61.4343 145.042 73.1017 135.822 83.7201C118.164 104.062 98.6444 107.312 86.0447 109.175C50.7714 114.401 22.3859 96.4108 9.38672 86.5968Z" fill="#6ADBFF"/>
<path d="M15.8778 54.9215C24.7211 46.076 31.2094 47.3052 43.8059 51.4368C56.47 55.594 58.1839 65.4531 74.9523 75.5696C81.7466 79.6689 95.5963 87.7582 112.774 84.9588C127.448 82.5681 138.395 73.24 144.829 66.3798C146.217 75.2221 148.166 94.1808 141.295 112.721C129.426 144.734 91.6595 163.213 75.6385 161.058C12.5112 152.56 12.3953 68.925 15.8778 54.9215Z" fill="#6ADBFF"/>
</g>
</svg>
